<svg width="24" height="25" viewBox="0 0 24 25" fill="none" xmlns="http://www.w3.org/2000/svg">
<path d="M6.35931 5.33276C5.37531 5.33276 4.72656 6.00476 4.72656 6.89276C4.72656 7.75676 5.35094 8.45201 6.31094 8.45201C7.34294 8.45201 7.99094 7.75676 7.96694 6.89276C7.96694 6.00476 7.34331 5.33276 6.35931 5.33276ZM15.5746 9.46076C13.9186 9.46076 12.9109 10.4204 12.5029 11.0924H12.4553L12.3109 9.67676H9.64731C9.67131 10.5888 9.71894 11.6448 9.71894 12.8928V19.732H12.7906V13.948C12.7906 13.66 12.8146 13.3724 12.8866 13.1564C13.1266 12.5804 13.6309 11.98 14.4709 11.98C15.5989 11.98 16.0309 12.8684 16.0309 14.1644V19.732H19.1269V13.8048C19.1269 10.8288 17.5906 9.46076 15.5746 9.46076ZM4.79931 9.67676V19.732H7.87094V9.67676H4.79931Z" fill="#FEFEFE"/>
</svg>
