<svg width="20" height="21" viewBox="0 0 20 21" fill="none" xmlns="http://www.w3.org/2000/svg">
<g clip-path="url(#clip0_36_1579)">
<path d="M12.7267 11.5408C13.2083 11.695 13.625 11.8875 14.0125 12.1241L13.9867 12.1091C14.4275 12.305 14.8083 12.5341 15.1558 12.8033L15.1433 12.7941C15.16 12.845 15.17 12.9025 15.17 12.9633C15.17 12.9725 15.17 12.9808 15.1692 12.99V12.9891C15.1567 13.3466 15.0775 13.6825 14.9433 13.9883L14.95 13.9708C14.7575 14.3566 14.4367 14.6541 14.0442 14.8125L14.0325 14.8166C13.65 15.0191 13.1983 15.1441 12.7192 15.1591H12.7142C11.7975 15.0375 10.9692 14.7558 10.2242 14.3408L10.26 14.3591C9.40833 13.9691 8.68083 13.4566 8.06333 12.835L8.0625 12.8341C7.37583 12.12 6.74667 11.3383 6.18917 10.5058L6.15 10.4441C5.62 9.7533 5.2825 8.88914 5.23333 7.9483L5.2325 7.93747V7.83414C5.25917 7.02164 5.6225 6.2983 6.18583 5.79497L6.18833 5.79247C6.36083 5.6208 6.5975 5.5133 6.85917 5.5083H6.86C6.94417 5.5108 7.025 5.51747 7.10333 5.52914L7.0925 5.52747C7.165 5.5383 7.24917 5.54497 7.33583 5.54664H7.33833C7.35417 5.54497 7.37167 5.54414 7.39 5.54414C7.49833 5.54414 7.59917 5.57664 7.68333 5.63164L7.68167 5.6308C7.77083 5.72914 7.83917 5.8483 7.88 5.97914L7.88167 5.9858C7.95056 6.15803 8.09278 6.53691 8.30833 7.12247C8.42083 7.38414 8.53083 7.70664 8.61917 8.0383L8.63083 8.0908C8.5675 8.39164 8.4075 8.64747 8.18667 8.83164L8.18417 8.8333C7.88694 9.14775 7.73833 9.34775 7.73833 9.4333C7.74167 9.50664 7.76667 9.5733 7.80583 9.6283L7.805 9.62747C8.1425 10.3183 8.585 10.905 9.11833 11.3933L9.1225 11.3975C9.685 11.905 10.3275 12.3408 11.0242 12.6808L11.0733 12.7025C11.1542 12.755 11.2508 12.7883 11.3558 12.7933H11.3575C11.4869 12.7933 11.7197 12.5844 12.0558 12.1666C12.3919 11.7489 12.6153 11.54 12.7258 11.54L12.7267 11.5408ZM10.1042 18.3875H10.1225C11.2533 18.3875 12.3283 18.15 13.3008 17.7216L13.25 17.7416C15.2133 16.9133 16.7442 15.3825 17.5525 13.4716L17.5725 13.4191C17.9808 12.4916 18.2183 11.41 18.2183 10.2733C18.2183 9.13664 17.9808 8.05497 17.5525 7.0758L17.5725 7.12747C16.7442 5.16414 15.2133 3.6333 13.3025 2.82497L13.25 2.80497C12.3225 2.39664 11.2408 2.15914 10.1042 2.15914C8.9675 2.15914 7.88583 2.39664 6.90667 2.82497L6.95833 2.80497C4.995 3.6333 3.46417 5.16414 2.65583 7.07497L2.63583 7.12747C2.2275 8.0583 1.99 9.1433 1.99 10.2833C1.99 12.0675 2.57167 13.7166 3.55583 15.05L3.54 15.0283L2.51917 18.0391L5.64583 17.0441C6.8875 17.8858 8.41833 18.3875 10.0667 18.3875H10.1058H10.1042ZM10.1042 0.532471H10.1317C11.4883 0.532471 12.7783 0.817471 13.9442 1.33164L13.8833 1.30747C16.2375 2.30497 18.0733 4.1408 19.0467 6.43164L19.0708 6.49497C19.5608 7.60914 19.8458 8.9083 19.8458 10.2741C19.8458 11.64 19.5608 12.9391 19.0467 14.115L19.0708 14.0533C18.0733 16.4075 16.2375 18.2433 13.9467 19.2166L13.8833 19.2408C12.7775 19.7308 11.4875 20.0158 10.1308 20.0158C10.1217 20.0158 10.1117 20.0158 10.1025 20.0158H10.1042C10.0908 20.0158 10.0758 20.0158 10.06 20.0158C8.34417 20.0158 6.73333 19.565 5.34 18.7758L5.3875 18.8008L0 20.5325L1.7575 15.3C0.881667 13.8716 0.3625 12.1425 0.3625 10.2916C0.3625 8.91997 0.6475 7.61497 1.16167 6.43247L1.1375 6.49497C2.135 4.1408 3.97083 2.30497 6.26167 1.33164L6.325 1.30747C7.43083 0.817471 8.72083 0.532471 10.0775 0.532471H10.105L10.1042 0.532471Z" fill="white"/>
</g>
<defs>
<clipPath id="clip0_36_1579">
<rect width="20" height="20" fill="white" transform="translate(0 0.532471)"/>
</clipPath>
</defs>
</svg>
